<svg width="96" height="10" viewBox="0 0 96 10" fill="none" xmlns="http://www.w3.org/2000/svg">
<g clip-path="url(#clip0_33_822)">
<path d="M5.79266 0.518603L6.98427 2.80396C7.06714 2.96291 7.22736 3.07305 7.4127 3.0985L10.0774 3.46499C10.5441 3.52924 10.7304 4.072 10.3927 4.38344L8.46459 6.16233C8.3306 6.28602 8.26933 6.46437 8.30107 6.63896L8.75616 9.15085C8.83594 9.59078 8.34801 9.9262 7.9306 9.71865L5.54737 8.53279C5.38164 8.45039 5.18352 8.45039 5.01779 8.53279L2.63456 9.71865C2.21715 9.92641 1.72922 9.59078 1.809 9.15085L2.26409 6.63896C2.29583 6.46437 2.23456 6.28602 2.10056 6.16233L0.172426 4.38344C-0.165202 4.0718 0.0210225 3.52903 0.487796 3.46499L3.15246 3.0985C3.3378 3.07305 3.49802 2.96291 3.58088 2.80396L4.7725 0.518603C4.98098 0.118311 5.58395 0.118311 5.79266 0.518603Z" fill="#00CEC9"/>
</g>
<g clip-path="url(#clip1_33_822)">
<path d="M19.5275 0.518603L20.7191 2.80396C20.802 2.96291 20.9622 3.07305 21.1476 3.0985L23.8122 3.46499C24.279 3.52924 24.4652 4.072 24.1276 4.38344L22.1995 6.16233C22.0655 6.28602 22.0042 6.46437 22.0359 6.63896L22.491 9.15085C22.5708 9.59078 22.0829 9.9262 21.6655 9.71865L19.2822 8.53279C19.1165 8.45039 18.9184 8.45039 18.7526 8.53279L16.3694 9.71865C15.952 9.92641 15.4641 9.59078 15.5439 9.15085L15.999 6.63896C16.0307 6.46437 15.9694 6.28602 15.8354 6.16233L13.9073 4.38344C13.5697 4.0718 13.7559 3.52903 14.2227 3.46499L16.8873 3.0985C17.0727 3.07305 17.2329 2.96291 17.3157 2.80396L18.5074 0.518603C18.7158 0.118311 19.3188 0.118311 19.5275 0.518603Z" fill="#00CEC9"/>
</g>
<g clip-path="url(#clip2_33_822)">
<path d="M33.2619 0.518603L34.4535 2.80396C34.5364 2.96291 34.6966 3.07305 34.8819 3.0985L37.5466 3.46499C38.0134 3.52924 38.1996 4.072 37.862 4.38344L35.9338 6.16233C35.7998 6.28602 35.7386 6.46437 35.7703 6.63896L36.2254 9.15085C36.3052 9.59078 35.8172 9.9262 35.3998 9.71865L33.0166 8.53279C32.8509 8.45039 32.6528 8.45039 32.487 8.53279L30.1038 9.71865C29.6864 9.92641 29.1985 9.59078 29.2782 9.15085L29.7333 6.63896C29.7651 6.46437 29.7038 6.28602 29.5698 6.16233L27.6417 4.38344C27.304 4.0718 27.4903 3.52903 27.957 3.46499L30.6217 3.0985C30.807 3.07305 30.9673 2.96291 31.0501 2.80396L32.2417 0.518603C32.4502 0.118311 33.0532 0.118311 33.2619 0.518603Z" fill="#00CEC9"/>
</g>
<g clip-path="url(#clip3_33_822)">
<path d="M49.9968 0.518603L51.1884 2.80396C51.2712 2.96291 51.4315 3.07305 51.6168 3.0985L54.2815 3.46499C54.7482 3.52924 54.9345 4.072 54.5968 4.38344L52.6687 6.16233C52.5347 6.28602 52.4734 6.46437 52.5052 6.63896L52.9603 9.15085C53.04 9.59078 52.5521 9.9262 52.1347 9.71865L49.7515 8.53279C49.5857 8.45039 49.3876 8.45039 49.2219 8.53279L46.8387 9.71865C46.4212 9.92641 45.9333 9.59078 46.0131 9.15085L46.4682 6.63896C46.4999 6.46437 46.4387 6.28602 46.3047 6.16233L44.3765 4.38344C44.0389 4.0718 44.2251 3.52903 44.6919 3.46499L47.3566 3.0985C47.5419 3.07305 47.7021 2.96291 47.785 2.80396L48.9766 0.518603C49.1851 0.118311 49.7881 0.118311 49.9968 0.518603Z" fill="#00CEC9"/>
</g>
<g clip-path="url(#clip4_33_822)">
<path d="M63.7316 0.518603L64.9232 2.80396C65.0061 2.96291 65.1663 3.07305 65.3517 3.0985L68.0163 3.46499C68.4831 3.52924 68.6693 4.072 68.3317 4.38344L66.4036 6.16233C66.2696 6.28602 66.2083 6.46437 66.24 6.63896L66.6951 9.15085C66.7749 9.59078 66.287 9.9262 65.8696 9.71865L63.4863 8.53279C63.3206 8.45039 63.1225 8.45039 62.9568 8.53279L60.5735 9.71865C60.1561 9.92641 59.6682 9.59078 59.748 9.15085L60.2031 6.63896C60.2348 6.46437 60.1735 6.28602 60.0395 6.16233L58.1114 4.38344C57.7738 4.0718 57.96 3.52903 58.4268 3.46499L61.0914 3.0985C61.2768 3.07305 61.437 2.96291 61.5198 2.80396L62.7115 0.518603C62.9199 0.118311 63.5229 0.118311 63.7316 0.518603Z" fill="#00CEC9"/>
</g>
<g clip-path="url(#clip5_33_822)">
<path d="M77.4665 0.518603L78.6581 2.80396C78.741 2.96291 78.9012 3.07305 79.0865 3.0985L81.7512 3.46499C82.218 3.52924 82.4042 4.072 82.0666 4.38344L80.1384 6.16233C80.0044 6.28602 79.9432 6.46437 79.9749 6.63896L80.43 9.15085C80.5098 9.59078 80.0218 9.9262 79.6044 9.71865L77.2212 8.53279C77.0555 8.45039 76.8573 8.45039 76.6916 8.53279L74.3084 9.71865C73.891 9.92641 73.403 9.59078 73.4828 9.15085L73.9379 6.63896C73.9697 6.46437 73.9084 6.28602 73.7744 6.16233L71.8463 4.38344C71.5086 4.0718 71.6949 3.52903 72.1616 3.46499L74.8263 3.0985C75.0116 3.07305 75.1718 2.96291 75.2547 2.80396L76.4463 0.518603C76.6548 0.118311 77.2578 0.118311 77.4665 0.518603Z" fill="#00CEC9"/>
</g>
<g clip-path="url(#clip6_33_822)">
<path d="M91.2009 0.518603L92.3925 2.80396C92.4753 2.96291 92.6356 3.07305 92.8209 3.0985L95.4856 3.46499C95.9523 3.52924 96.1386 4.072 95.8009 4.38344L93.8728 6.16233C93.7388 6.28602 93.6775 6.46437 93.7093 6.63896L94.1644 9.15085C94.2441 9.59078 93.7562 9.9262 93.3388 9.71865L90.9556 8.53279C90.7898 8.45039 90.5917 8.45039 90.426 8.53279L88.0428 9.71865C87.6254 9.92641 87.1374 9.59078 87.2172 9.15085L87.6723 6.63896C87.704 6.46437 87.6428 6.28602 87.5088 6.16233L85.5806 4.38344C85.243 4.0718 85.4292 3.52903 85.896 3.46499L88.5607 3.0985C88.746 3.07305 88.9062 2.96291 88.9891 2.80396L90.1807 0.518603C90.3892 0.118311 90.9922 0.118311 91.2009 0.518603Z" fill="#00CEC9"/>
</g>
<defs>
<clipPath id="clip0_33_822">
<rect width="10.5652" height="10" fill="white"/>
</clipPath>
<clipPath id="clip1_33_822">
<rect width="10.5652" height="10" fill="white" transform="translate(13.7349)"/>
</clipPath>
<clipPath id="clip2_33_822">
<rect width="10.5652" height="10" fill="white" transform="translate(27.4692)"/>
</clipPath>
<clipPath id="clip3_33_822">
<rect width="10.5652" height="10" fill="white" transform="translate(44.2041)"/>
</clipPath>
<clipPath id="clip4_33_822">
<rect width="10.5652" height="10" fill="white" transform="translate(57.939)"/>
</clipPath>
<clipPath id="clip5_33_822">
<rect width="10.5652" height="10" fill="white" transform="translate(71.6738)"/>
</clipPath>
<clipPath id="clip6_33_822">
<rect width="10.5652" height="10" fill="white" transform="translate(85.4082)"/>
</clipPath>
</defs>
</svg>
