<svg width="69" height="10" viewBox="0 0 69 10" fill="none" xmlns="http://www.w3.org/2000/svg">
<g clip-path="url(#clip0_39_335)">
<path d="M5.79382 0.518576L6.98568 2.80393C7.06856 2.96288 7.22881 3.07302 7.41419 3.09847L10.0794 3.46497C10.5463 3.52922 10.7325 4.07198 10.3948 4.38341L8.46629 6.1623C8.33227 6.286 8.27099 6.46434 8.30273 6.63894L8.75792 9.15083C8.83771 9.59075 8.34968 9.92617 7.93219 9.71862L5.54848 8.53276C5.38272 8.45037 5.18456 8.45037 5.01879 8.53276L2.63508 9.71862C2.21759 9.92638 1.72957 9.59075 1.80936 9.15083L2.26454 6.63894C2.29629 6.46434 2.23501 6.286 2.10099 6.1623L0.172461 4.38341C-0.165235 4.07177 0.0210268 3.52901 0.487894 3.46497L3.15309 3.09847C3.33847 3.07302 3.49872 2.96288 3.5816 2.80393L4.77346 0.518576C4.98198 0.118284 5.58507 0.118284 5.79382 0.518576Z" fill="#00CEC9"/>
</g>
<g clip-path="url(#clip1_39_335)">
<path d="M19.5311 0.518576L20.723 2.80393C20.8059 2.96288 20.9661 3.07302 21.1515 3.09847L23.8167 3.46497C24.2836 3.52922 24.4698 4.07198 24.1321 4.38341L22.2036 6.1623C22.0696 6.286 22.0083 6.46434 22.04 6.63894L22.4952 9.15083C22.575 9.59075 22.087 9.92617 21.6695 9.71862L19.2858 8.53276C19.12 8.45037 18.9219 8.45037 18.7561 8.53276L16.3724 9.71862C15.9549 9.92638 15.4669 9.59075 15.5467 9.15083L16.0018 6.63894C16.0336 6.46434 15.9723 6.286 15.8383 6.1623L13.9098 4.38341C13.5721 4.07177 13.7583 3.52901 14.2252 3.46497L16.8904 3.09847C17.0758 3.07302 17.236 2.96288 17.3189 2.80393L18.5108 0.518576C18.7193 0.118284 19.3224 0.118284 19.5311 0.518576Z" fill="#00CEC9"/>
</g>
<g clip-path="url(#clip2_39_335)">
<path d="M33.2689 0.518576L34.4608 2.80393C34.5437 2.96288 34.7039 3.07302 34.8893 3.09847L37.5545 3.46497C38.0213 3.52922 38.2076 4.07198 37.8699 4.38341L35.9414 6.1623C35.8074 6.286 35.7461 6.46434 35.7778 6.63894L36.233 9.15083C36.3128 9.59075 35.8248 9.92617 35.4073 9.71862L33.0236 8.53276C32.8578 8.45037 32.6597 8.45037 32.4939 8.53276L30.1102 9.71862C29.6927 9.92638 29.2047 9.59075 29.2845 9.15083L29.7396 6.63894C29.7714 6.46434 29.7101 6.286 29.5761 6.1623L27.6476 4.38341C27.3099 4.07177 27.4961 3.52901 27.963 3.46497L30.6282 3.09847C30.8136 3.07302 30.9738 2.96288 31.0567 2.80393L32.2486 0.518576C32.4571 0.118284 33.0602 0.118284 33.2689 0.518576Z" fill="#00CEC9"/>
</g>
<g clip-path="url(#clip3_39_335)">
<path d="M50.0062 0.518576L51.1981 2.80393C51.281 2.96288 51.4412 3.07302 51.6266 3.09847L54.2918 3.46497C54.7587 3.52922 54.9449 4.07198 54.6072 4.38341L52.6787 6.1623C52.5447 6.286 52.4834 6.46434 52.5151 6.63894L52.9703 9.15083C53.0501 9.59075 52.5621 9.92617 52.1446 9.71862L49.7609 8.53276C49.5951 8.45037 49.397 8.45037 49.2312 8.53276L46.8475 9.71862C46.43 9.92638 45.942 9.59075 46.0218 9.15083L46.4769 6.63894C46.5087 6.46434 46.4474 6.286 46.3134 6.1623L44.3849 4.38341C44.0472 4.07177 44.2334 3.52901 44.7003 3.46497L47.3655 3.09847C47.5509 3.07302 47.7111 2.96288 47.794 2.80393L48.9859 0.518576C49.1944 0.118284 49.7975 0.118284 50.0062 0.518576Z" fill="#00CEC9"/>
</g>
<g clip-path="url(#clip4_39_335)">
<path d="M63.7435 0.518576L64.9354 2.80393C65.0183 2.96288 65.1785 3.07302 65.3639 3.09847L68.0291 3.46497C68.496 3.52922 68.6822 4.07198 68.3445 4.38341L66.416 6.1623C66.282 6.286 66.2207 6.46434 66.2524 6.63894L66.7076 9.15083C66.7874 9.59075 66.2994 9.92617 65.8819 9.71862L63.4982 8.53276C63.3324 8.45037 63.1343 8.45037 62.9685 8.53276L60.5848 9.71862C60.1673 9.92638 59.6793 9.59075 59.7591 9.15083L60.2143 6.63894C60.246 6.46434 60.1847 6.286 60.0507 6.1623L58.1222 4.38341C57.7845 4.07177 57.9707 3.52901 58.4376 3.46497L61.1028 3.09847C61.2882 3.07302 61.4484 2.96288 61.5313 2.80393L62.7232 0.518576C62.9317 0.118284 63.5348 0.118284 63.7435 0.518576Z" fill="#00CEC9"/>
</g>
<defs>
<clipPath id="clip0_39_335">
<rect width="10.5673" height="10" fill="white"/>
</clipPath>
<clipPath id="clip1_39_335">
<rect width="10.5673" height="10" fill="white" transform="translate(13.7373)"/>
</clipPath>
<clipPath id="clip2_39_335">
<rect width="10.5673" height="10" fill="white" transform="translate(27.4751)"/>
</clipPath>
<clipPath id="clip3_39_335">
<rect width="10.5673" height="10" fill="white" transform="translate(44.2124)"/>
</clipPath>
<clipPath id="clip4_39_335">
<rect width="10.5673" height="10" fill="white" transform="translate(57.9497)"/>
</clipPath>
</defs>
</svg>
