<svg width="26" height="28" viewBox="0 0 26 28" fill="none" xmlns="http://www.w3.org/2000/svg">
<path d="M24.9999 27.4855H0.999995C0.453331 27.4855 0 27.0315 0 26.4841C0 25.9366 0.453331 25.4826 0.999995 25.4826H24.9999C25.5465 25.4826 25.9999 25.9366 25.9999 26.4841C25.9999 27.0315 25.5465 27.4855 24.9999 27.4855Z" fill="#292D32"/>
<path d="M17.1859 1.0013L3.52915 15.1625L3.00389 23.0298L10.3575 21.9809C13.8592 18.4843 24.5125 8.2634 24.0142 6.77068C22.9637 3.62374 20.3374 1.52579 17.1859 1.0013Z" fill="#292D32"/>
<path d="M5.05329 24.1606C4.23996 24.1606 3.47997 23.88 2.9333 23.3592C2.23997 22.705 1.90664 21.7168 2.02664 20.6486L2.51997 16.3223C2.6133 15.5077 3.10663 14.4261 3.67997 13.8386L14.6266 2.23499C17.3599 -0.6626 20.2132 -0.742717 23.1066 1.99463C25.9999 4.73198 26.0799 7.58951 23.3466 10.4871L12.3999 22.0907C11.8399 22.6916 10.7999 23.2524 9.9866 23.3861L5.69329 24.1204C5.46662 24.1337 5.26662 24.1606 5.05329 24.1606ZM18.9066 1.98128C17.8799 1.98128 16.9866 2.62222 16.0799 3.58363L5.13329 15.2007C4.86663 15.4812 4.55996 16.1488 4.50663 16.536L4.0133 20.8623C3.95996 21.3029 4.06663 21.6634 4.30663 21.8904C4.54663 22.1174 4.90663 22.1975 5.34662 22.1308L9.63994 21.3965C10.0266 21.3297 10.6666 20.9824 10.9333 20.702L21.8799 9.09839C23.5332 7.3358 24.1332 5.70675 21.7199 3.43675C20.6532 2.40857 19.7332 1.98128 18.9066 1.98128Z" fill="#292D32"/>
<path d="M22.3255 12.1084C22.2988 12.1084 22.2588 12.1084 22.2321 12.1084C18.0722 11.6945 14.7255 8.52989 14.0855 4.39049C13.9655 3.61421 13.9243 2.83198 14.6849 3.03705C15.2316 2.95693 15.9788 3.5359 16.0722 4.08337C16.5788 7.31478 19.1921 9.79842 22.4455 10.1189C22.9921 10.1723 23.5782 10.8218 23.5249 11.3692C23.7109 12.0455 23.0048 12.1084 22.3255 12.1084Z" fill="white"/>
</svg>
