<svg width="21" height="21" viewBox="0 0 21 21" fill="none" xmlns="http://www.w3.org/2000/svg">
<path d="M10.4997 19.2499C6.63398 19.2499 3.49975 16.9907 3.49975 13.1249V13.0479C3.49975 11.1947 4.54012 9.71245 6.12474 8.74996C7.64023 7.82946 8.5371 6.13372 8.31222 4.37498L7.87473 1.75L9.49697 2.44562C12.419 3.69772 14.8531 5.86829 16.4304 8.62833C17.1312 9.85495 17.4998 11.2432 17.4997 12.6559V13.1249C17.4997 14.4917 17.1077 15.658 16.4304 16.5943" stroke="white" stroke-width="1.72472" stroke-linecap="round" stroke-linejoin="round"/>
<path d="M10.4999 19.25C9.05006 19.25 7.87494 17.9961 7.87494 16.45C7.87494 15.225 8.76393 14.2441 9.54618 13.3455L10.4999 12.25L11.4537 13.3455C12.2359 14.245 13.1249 15.225 13.1249 16.45C13.1249 17.9961 11.9498 19.25 10.4999 19.25Z" stroke="white" stroke-width="1.72472" stroke-linecap="round" stroke-linejoin="round"/>
</svg>
