<svg width="28" height="22" viewBox="0 0 28 22" fill="none" xmlns="http://www.w3.org/2000/svg">
<path d="M20.3985 0H6.7995C2.7198 0 0 1.94118 0 6.47059V15.5294C0 20.0588 2.7198 22 6.7995 22H20.3985C24.4782 22 27.198 20.0588 27.198 15.5294V6.47059C27.198 1.94118 24.4782 0 20.3985 0ZM21.0377 7.88118L16.7812 11.1165C15.8836 11.8024 14.7413 12.1388 13.599 12.1388C12.4567 12.1388 11.3008 11.8024 10.4168 11.1165L6.16035 7.88118C5.72518 7.54471 5.65718 6.92353 5.99716 6.50941C6.35073 6.09529 6.98989 6.01765 7.42505 6.35412L11.6815 9.58941C12.7151 10.3788 14.4693 10.3788 15.5029 9.58941L19.7593 6.35412C20.1945 6.01765 20.8473 6.08235 21.1872 6.50941C21.5408 6.92353 21.4728 7.54471 21.0377 7.88118Z" fill="#292D32"/>
</svg>
