<svg width="17" height="18" viewBox="0 0 17 18" fill="none" xmlns="http://www.w3.org/2000/svg">
<g clip-path="url(#clip0_33_520)">
<path d="M14.3885 3.45754C14.0358 3.07429 13.6171 2.77027 13.1563 2.56285C12.6955 2.35543 12.2015 2.24867 11.7027 2.24867C11.2039 2.24867 10.7099 2.35543 10.2491 2.56285C9.78826 2.77027 9.36956 3.07429 9.01692 3.45754L8.28506 4.25253L7.55321 3.45754C6.8409 2.68377 5.8748 2.24907 4.86744 2.24907C3.86008 2.24907 2.89398 2.68377 2.18167 3.45754C1.46936 4.2313 1.06918 5.28076 1.06918 6.37503C1.06918 7.46931 1.46936 8.51876 2.18167 9.29253L2.91352 10.0875L8.28506 15.9225L13.6566 10.0875L14.3885 9.29253C14.7413 8.90946 15.0211 8.45464 15.2121 7.95405C15.403 7.45345 15.5013 6.9169 15.5013 6.37503C15.5013 5.83317 15.403 5.29661 15.2121 4.79602C15.0211 4.29542 14.7413 3.8406 14.3885 3.45754V3.45754Z" stroke="white" stroke-width="1.52137" stroke-linecap="round" stroke-linejoin="round"/>
</g>
<defs>
<clipPath id="clip0_33_520">
<rect width="16.5046" height="17.9286" fill="white" transform="scale(1.00398)"/>
</clipPath>
</defs>
</svg>
