<svg width="22" height="23" viewBox="0 0 22 23" fill="none" xmlns="http://www.w3.org/2000/svg">
<path fill-rule="evenodd" clip-rule="evenodd" d="M8.72464 2.3C5.11077 2.3 2.18116 5.38924 2.18116 9.2C2.18116 13.0108 5.11077 16.1 8.72464 16.1C12.3385 16.1 15.2681 13.0108 15.2681 9.2C15.2681 5.38924 12.3385 2.3 8.72464 2.3ZM0 9.2C0 4.11898 3.90615 0 8.72464 0C13.5431 0 17.4493 4.11898 17.4493 9.2C17.4493 14.281 13.5431 18.4 8.72464 18.4C3.90615 18.4 0 14.281 0 9.2Z" fill="#282B2C"/>
<path fill-rule="evenodd" clip-rule="evenodd" d="M13.4064 14.1368C13.8323 13.6877 14.5228 13.6877 14.9487 14.1368L21.4922 21.0368C21.9181 21.4859 21.9181 22.2141 21.4922 22.6632C21.0663 23.1123 20.3758 23.1123 19.9499 22.6632L13.4064 15.7632C12.9805 15.3141 12.9805 14.5859 13.4064 14.1368Z" fill="#282B2C"/>
</svg>
