<svg width="21" height="21" viewBox="0 0 21 21" fill="none" xmlns="http://www.w3.org/2000/svg">
<path d="M17.8378 17.2023L17.9265 17.3906H18.1346H19.3592V18.0468H1.64053V17.3906H2.86509H3.0732L3.16191 17.2023L9.61587 3.50567C9.69617 3.34104 9.82081 3.20207 9.97579 3.1044C10.1313 3.00641 10.3111 2.95391 10.4949 2.95283C10.6786 2.95175 10.8591 3.00215 11.0157 3.09831C11.1713 3.19385 11.2972 3.33077 11.3795 3.49374L17.8378 17.2023ZM10.7901 3.78389L10.493 3.15327L10.1964 3.78411L6.95122 10.6852L6.83091 10.9411L7.06618 11.0979L8.34914 11.9529L8.53114 12.0743L8.71312 11.9529L10.4999 10.7618L12.2866 11.9529L12.4686 12.0743L12.6506 11.9529L13.9283 11.1011L14.1637 10.9442L14.0431 10.6883L10.7901 3.78389ZM6.86581 11.7528L6.54896 11.5415L6.38686 11.8861L4.01781 16.9228L3.79779 17.3906H4.31473H16.683H17.2002L16.9799 16.9227L14.6095 11.8886L14.4474 11.5443L14.1307 11.7553L12.4686 12.8632L10.6819 11.672L10.4999 11.5507L10.3178 11.672L8.53113 12.8632L6.86581 11.7528Z" fill="#6A778B" stroke="#6A778B" stroke-width="0.64677"/>
</svg>
