<svg width="11" height="10" viewBox="0 0 11 10" fill="none" xmlns="http://www.w3.org/2000/svg">
<path d="M5.28251 0C3.26089 0 1.61621 1.55692 1.61621 3.47045C1.61621 5.31238 4.94271 9.61578 5.08435 9.79801L5.21654 9.96828C5.232 9.9883 5.25661 10 5.28251 10C5.30881 10 5.33327 9.9883 5.34889 9.96828L5.481 9.79801C5.62272 9.61578 8.94913 5.31238 8.94913 3.47045C8.94913 1.55692 7.30419 0 5.28251 0ZM5.28251 2.22734C6.00687 2.22734 6.59588 2.78487 6.59588 3.47045C6.59588 4.15567 6.00684 4.71355 5.28251 4.71355C4.55859 4.71355 3.96914 4.15567 3.96914 3.47045C3.96914 2.78487 4.55856 2.22734 5.28251 2.22734Z" fill="#00CEC9"/>
</svg>
