<svg width="16" height="17" viewBox="0 0 16 17" fill="none" xmlns="http://www.w3.org/2000/svg">
<path d="M15.4829 5.84445L10.6864 5.08722L8.54224 0.365285C8.48367 0.236002 8.38733 0.131343 8.26831 0.0677276C7.96983 -0.0923379 7.60712 0.04105 7.45787 0.365285L5.31371 5.08722L0.517214 5.84445C0.384975 5.86497 0.264071 5.93269 0.171503 6.0353C0.0595946 6.16024 -0.0020722 6.32834 5.31713e-05 6.50265C0.00217854 6.67696 0.0679222 6.84323 0.182838 6.96491L3.65317 10.6403L2.83329 15.8301C2.81406 15.9508 2.82636 16.075 2.86879 16.1885C2.91122 16.302 2.98208 16.4003 3.07334 16.4723C3.16459 16.5443 3.2726 16.5871 3.3851 16.5958C3.4976 16.6045 3.6101 16.5788 3.70984 16.5216L8.00005 14.0714L12.2903 16.5216C12.4074 16.5894 12.5434 16.6119 12.6738 16.5873C13.0025 16.5257 13.2235 16.1871 13.1668 15.8301L12.3469 10.6403L15.8173 6.96491C15.9117 6.86436 15.9741 6.73302 15.993 6.58937C16.044 6.23025 15.8135 5.89781 15.4829 5.84445Z" fill="#FF5733"/>
</svg>
