<svg width="26" height="27" viewBox="0 0 26 27" fill="none" xmlns="http://www.w3.org/2000/svg">
<path d="M11.7831 16.8857L9.37438 19.298C8.8666 19.8065 8.05936 19.8065 7.53856 19.311C7.39534 19.1676 7.25212 19.0372 7.1089 18.8937C5.76785 17.5377 4.55699 16.1164 3.47633 14.6299C2.40869 13.1435 1.54938 11.657 0.924418 10.1836C0.312479 8.69712 0 7.27585 0 5.91978C0 5.03312 0.15624 4.18557 0.468719 3.40322C0.781198 2.60783 1.27596 1.87764 1.96602 1.22568C2.79929 0.404214 3.71069 0 4.67417 0C5.03873 0 5.40329 0.0782351 5.72879 0.234705C6.06731 0.391175 6.36677 0.62588 6.60113 0.964898L9.62176 5.22871C9.85612 5.55468 10.0254 5.85458 10.1426 6.14145C10.2597 6.41527 10.3248 6.68909 10.3248 6.93684C10.3248 7.24978 10.2337 7.56272 10.0514 7.86262C9.88216 8.16252 9.63478 8.47546 9.3223 8.7884L8.33278 9.81849C8.18956 9.96192 8.12446 10.1314 8.12446 10.3401C8.12446 10.4444 8.13748 10.5356 8.16352 10.64C8.20258 10.7443 8.24164 10.8225 8.26768 10.9007C8.50204 11.331 8.90566 11.8917 9.47854 12.5698C10.0644 13.2478 10.6894 13.9389 11.3664 14.6299C11.4966 14.7603 11.6399 14.8907 11.7701 15.0211C12.2909 15.5296 12.3039 16.3642 11.7831 16.8857Z" fill="#292D32"/>
<path d="M26 21.2918C26 21.6569 25.9349 22.035 25.8047 22.4001C25.7657 22.5044 25.7266 22.6088 25.6745 22.7131C25.4532 23.1825 25.1668 23.6258 24.7892 24.0431C24.1512 24.7472 23.4481 25.2557 22.6539 25.5817C22.6409 25.5817 22.6279 25.5947 22.6149 25.5947C21.8467 25.9077 21.0134 26.0772 20.115 26.0772C18.787 26.0772 17.3678 25.7642 15.8705 25.1253C14.3732 24.4864 12.8759 23.6258 11.3916 22.5436C10.8839 22.1654 10.3761 21.7873 9.89435 21.3831L14.1519 17.1193C14.5164 17.3931 14.8419 17.6017 15.1153 17.7452C15.1804 17.7712 15.2586 17.8104 15.3497 17.8495C15.4539 17.8886 15.558 17.9016 15.6752 17.9016C15.8965 17.9016 16.0658 17.8234 16.209 17.68L17.1985 16.702C17.524 16.376 17.8365 16.1283 18.136 15.9718C18.4354 15.7893 18.7349 15.698 19.0604 15.698C19.3078 15.698 19.5682 15.7502 19.8546 15.8675C20.1411 15.9849 20.4405 16.1544 20.766 16.376L25.0756 19.4402C25.4141 19.675 25.6485 19.9488 25.7917 20.2748C25.9219 20.6007 26 20.9267 26 21.2918Z" fill="#292D32"/>
</svg>
