<svg width="21" height="21" viewBox="0 0 21 21" fill="none" xmlns="http://www.w3.org/2000/svg">
<g clip-path="url(#clip0_33_478)">
<path d="M0.0470654 4.34959C0.111842 4.1881 0.2381 4.05894 0.398081 3.99052C0.558061 3.9221 0.738666 3.92001 0.900185 3.98472L3.20623 4.9074C3.67554 5.09509 4.19905 5.09509 4.66835 4.9074L5.99922 4.37453C6.78152 4.0616 7.65422 4.0616 8.43652 4.37453L9.7687 4.9074C10.238 5.09509 10.7615 5.09509 11.2308 4.9074L12.5617 4.37453C13.344 4.0616 14.2167 4.0616 14.999 4.37453L16.3312 4.9074C16.8005 5.09509 17.324 5.09509 17.7933 4.9074L20.0993 3.98472C20.1797 3.95055 20.2661 3.93276 20.3534 3.9324C20.4407 3.93203 20.5272 3.94911 20.6079 3.98261C20.6885 4.01611 20.7617 4.06538 20.823 4.12751C20.8844 4.18965 20.9327 4.2634 20.9652 4.34446C20.9977 4.42552 21.0137 4.51225 21.0123 4.59956C21.0108 4.68688 20.9919 4.77302 20.9568 4.85295C20.9216 4.93288 20.8708 5.00499 20.8074 5.06505C20.744 5.12511 20.6693 5.17191 20.5876 5.20271L18.2802 6.12539C17.4979 6.43832 16.6252 6.43832 15.8429 6.12539L14.512 5.59252C14.0427 5.40483 13.5192 5.40483 13.0499 5.59252L11.7177 6.12539C10.9354 6.43832 10.0627 6.43832 9.28045 6.12539L7.94958 5.59252C7.48028 5.40483 6.95677 5.40483 6.48746 5.59252L5.15529 6.12539C4.37299 6.43832 3.50029 6.43832 2.71799 6.12539L0.411938 5.20271C0.250447 5.13793 0.121291 5.01167 0.0528689 4.85169C-0.0155535 4.69171 -0.017641 4.51111 0.0470654 4.34959ZM0.0470654 8.28707C0.111842 8.12557 0.2381 7.99642 0.398081 7.928C0.558061 7.85957 0.738666 7.85749 0.900185 7.92219L3.20623 8.84487C3.67554 9.03256 4.19905 9.03256 4.66835 8.84487L5.99922 8.312C6.78152 7.99907 7.65422 7.99907 8.43652 8.312L9.7687 8.84487C10.238 9.03256 10.7615 9.03256 11.2308 8.84487L12.5617 8.312C13.344 7.99907 14.2167 7.99907 14.999 8.312L16.3312 8.84487C16.8005 9.03256 17.324 9.03256 17.7933 8.84487L20.0993 7.92219C20.1797 7.88802 20.2661 7.87023 20.3534 7.86987C20.4407 7.86951 20.5272 7.88658 20.6079 7.92009C20.6885 7.95359 20.7617 8.00285 20.823 8.06499C20.8844 8.12712 20.9327 8.20088 20.9652 8.28194C20.9977 8.36299 21.0137 8.44972 21.0123 8.53704C21.0108 8.62435 20.9919 8.7105 20.9568 8.79043C20.9216 8.87036 20.8708 8.94247 20.8074 9.00253C20.744 9.06258 20.6693 9.10938 20.5876 9.14019L18.2802 10.0629C17.4979 10.3758 16.6252 10.3758 15.8429 10.0629L14.512 9.53C14.0427 9.34231 13.5192 9.34231 13.0499 9.53L11.7177 10.0629C10.9354 10.3758 10.0627 10.3758 9.28045 10.0629L7.94958 9.53C7.48028 9.34231 6.95677 9.34231 6.48746 9.53L5.15529 10.0629C4.37299 10.3758 3.50029 10.3758 2.71799 10.0629L0.411938 9.14019C0.250447 9.07541 0.121291 8.94915 0.0528689 8.78917C-0.0155535 8.62919 -0.017641 8.44858 0.0470654 8.28707ZM0.0470654 12.2245C0.111842 12.0631 0.2381 11.9339 0.398081 11.8655C0.558061 11.7971 0.738666 11.795 0.900185 11.8597L3.20623 12.7824C3.67554 12.97 4.19905 12.97 4.66835 12.7824L5.99922 12.2495C6.78152 11.9366 7.65422 11.9366 8.43652 12.2495L9.7687 12.7824C10.238 12.97 10.7615 12.97 11.2308 12.7824L12.5617 12.2495C13.344 11.9366 14.2167 11.9366 14.999 12.2495L16.3312 12.7824C16.8005 12.97 17.324 12.97 17.7933 12.7824L20.0993 11.8597C20.1797 11.8255 20.2661 11.8077 20.3534 11.8074C20.4407 11.807 20.5272 11.8241 20.6079 11.8576C20.6885 11.8911 20.7617 11.9403 20.823 12.0025C20.8844 12.0646 20.9327 12.1384 20.9652 12.2194C20.9977 12.3005 21.0137 12.3872 21.0123 12.4745C21.0108 12.5618 20.9919 12.648 20.9568 12.7279C20.9216 12.8078 20.8708 12.8799 20.8074 12.94C20.744 13.0001 20.6693 13.0469 20.5876 13.0777L18.2802 14.0003C17.4979 14.3133 16.6252 14.3133 15.8429 14.0003L14.512 13.4675C14.0427 13.2798 13.5192 13.2798 13.0499 13.4675L11.7177 14.0003C10.9354 14.3133 10.0627 14.3133 9.28045 14.0003L7.94958 13.4675C7.48028 13.2798 6.95677 13.2798 6.48746 13.4675L5.15529 14.0003C4.37299 14.3133 3.50029 14.3133 2.71799 14.0003L0.411938 13.0777C0.250447 13.0129 0.121291 12.8866 0.0528689 12.7266C-0.0155535 12.5667 -0.017641 12.3861 0.0470654 12.2245ZM0.0470654 16.162C0.111842 16.0005 0.2381 15.8714 0.398081 15.8029C0.558061 15.7345 0.738666 15.7324 0.900185 15.7971L3.20623 16.7198C3.67554 16.9075 4.19905 16.9075 4.66835 16.7198L5.99922 16.187C6.78152 15.874 7.65422 15.874 8.43652 16.187L9.7687 16.7198C10.238 16.9075 10.7615 16.9075 11.2308 16.7198L12.5617 16.187C13.344 15.874 14.2167 15.874 14.999 16.187L16.3312 16.7198C16.8005 16.9075 17.324 16.9075 17.7933 16.7198L20.0993 15.7971C20.1797 15.763 20.2661 15.7452 20.3534 15.7448C20.4407 15.7445 20.5272 15.7615 20.6079 15.795C20.6885 15.8285 20.7617 15.8778 20.823 15.9399C20.8844 16.0021 20.9327 16.0758 20.9652 16.1569C20.9977 16.2379 21.0137 16.3247 21.0123 16.412C21.0108 16.4993 20.9919 16.5855 20.9568 16.6654C20.9216 16.7453 20.8708 16.8174 20.8074 16.8775C20.744 16.9375 20.6693 16.9843 20.5876 17.0151L18.2802 17.9378C17.4979 18.2507 16.6252 18.2507 15.8429 17.9378L14.512 17.4049C14.0427 17.2173 13.5192 17.2173 13.0499 17.4049L11.7177 17.9378C10.9354 18.2507 10.0627 18.2507 9.28045 17.9378L7.94958 17.4049C7.48028 17.2173 6.95677 17.2173 6.48746 17.4049L5.15529 17.9378C4.37299 18.2507 3.50029 18.2507 2.71799 17.9378L0.411938 17.0151C0.250447 16.9504 0.121291 16.8241 0.0528689 16.6641C-0.0155535 16.5041 -0.017641 16.3235 0.0470654 16.162Z" fill="#6A778B"/>
</g>
<defs>
<clipPath id="clip0_33_478">
<rect width="20.6967" height="20.6967" fill="white" transform="scale(1.01465)"/>
</clipPath>
</defs>
</svg>
