<svg width="20" height="20" viewBox="0 0 20 20" fill="none" xmlns="http://www.w3.org/2000/svg">
<path d="M9.98673 15.3498C10.8856 15.3498 11.6143 14.6201 11.6143 13.7198C11.6143 12.8196 10.8856 12.0898 9.98673 12.0898C9.08785 12.0898 8.35913 12.8196 8.35913 13.7198C8.35913 14.6201 9.08785 15.3498 9.98673 15.3498Z" fill="#292D32"/>
<path d="M16.256 7.52999V6.27999C16.256 3.57999 15.607 0 9.98526 0C4.36356 0 3.71452 3.57999 3.71452 6.27999V7.52999C0.918644 7.87999 0 9.29998 0 12.79V14.65C0 18.75 1.24816 20 5.34211 20H14.6284C18.7224 20 19.9705 18.75 19.9705 14.65V12.79C19.9705 9.29998 19.0519 7.87999 16.256 7.52999ZM9.98526 16.74C8.31772 16.74 6.96971 15.38 6.96971 13.72C6.96971 12.05 8.32771 10.7 9.98526 10.7C11.6428 10.7 13.0008 12.06 13.0008 13.72C13.0008 15.39 11.6528 16.74 9.98526 16.74ZM5.34211 7.43999C5.26223 7.43999 5.19234 7.43999 5.11245 7.43999V6.27999C5.11245 3.34999 5.94123 1.4 9.98526 1.4C14.0293 1.4 14.8581 3.34999 14.8581 6.27999V7.44999C14.7782 7.44999 14.7083 7.44999 14.6284 7.44999H5.34211V7.43999Z" fill="#292D32"/>
</svg>
