<svg width="14" height="14" viewBox="0 0 14 14" fill="none" xmlns="http://www.w3.org/2000/svg">
<path d="M6.52539 0C2.92076 0 0 1.95159 0 4.36898C0 8.54884 6.52539 14 6.52539 14C6.52539 14 13.0508 8.54797 13.0508 4.36898C13.0508 1.95247 10.13 0 6.52539 0ZM6.52539 6.78637C5.59084 6.78637 4.69457 6.53731 4.03375 6.09397C3.37293 5.65064 3.00168 5.04935 3.00168 4.42239C3.00168 3.79542 3.37293 3.19414 4.03375 2.7508C4.69457 2.30747 5.59084 2.05841 6.52539 2.05841C7.45994 2.05841 8.35621 2.30747 9.01703 2.7508C9.67785 3.19414 10.0491 3.79542 10.0491 4.42239C10.0491 5.04935 9.67785 5.65064 9.01703 6.09397C8.35621 6.53731 7.45994 6.78637 6.52539 6.78637Z" fill="#FF9680"/>
</svg>
